<?xml version="1.0" standalone="no"?>
<!DOCTYPE svg PUBLIC "-//W3C//DTD SVG 20010904//EN"
 "http://www.w3.org/TR/2001/REC-SVG-20010904/DTD/svg10.dtd">
<svg version="1.0" xmlns="http://www.w3.org/2000/svg"
 width="2000.000000pt" height="2000.000000pt" viewBox="0 0 2000.000000 2000.000000"
 preserveAspectRatio="xMidYMid meet">

<g transform="translate(0.000000,2000.000000) scale(0.100000,-0.100000)"
fill="#000000" stroke="none">
<path d="M5985 15624 c-484 -29 -766 -79 -1135 -202 -287 -96 -692 -306 -925
-481 -331 -248 -544 -460 -776 -771 -297 -399 -507 -846 -624 -1325 -83 -344
-113 -561 -122 -900 -17 -655 121 -1399 370 -1985 141 -332 182 -422 194 -427
17 -7 62 35 139 128 66 79 227 222 315 280 99 65 139 99 139 118 0 9 -23 71
-51 136 -154 362 -266 797 -321 1245 -17 139 -17 631 0 770 47 383 112 640
235 940 87 212 120 274 257 480 416 631 1096 1093 1820 1239 393 80 854 92
1280 35 547 -73 1112 -286 1595 -601 368 -241 736 -584 1017 -949 173 -225
309 -446 483 -786 85 -168 118 -223 132 -223 13 0 42 48 116 195 184 368 327
596 531 850 270 336 470 528 821 789 226 168 455 299 815 464 138 64 441 161
610 197 339 72 478 88 812 97 469 11 820 -40 1203 -175 318 -112 582 -256 830
-452 101 -80 350 -330 438 -441 380 -474 609 -1076 657 -1725 41 -565 -30
-1099 -218 -1629 -62 -173 -69 -192 -139 -337 -31 -64 -53 -123 -50 -131 7
-17 85 -77 167 -126 87 -53 216 -161 330 -275 57 -58 112 -106 120 -106 17 0
48 60 98 190 16 41 57 140 90 220 196 471 320 986 363 1510 15 186 15 622 0
765 -36 342 -107 671 -211 985 -85 256 -272 626 -449 888 -184 272 -434 539
-707 754 -477 376 -1146 657 -1744 732 -419 53 -856 55 -1245 5 -565 -72
-1166 -292 -1620 -592 -488 -324 -810 -627 -1113 -1049 -221 -306 -406 -640
-486 -874 -12 -34 -25 -63 -30 -65 -4 -2 -21 32 -36 76 -48 140 -205 472 -290
615 -64 109 -225 337 -308 439 -180 219 -448 478 -651 629 -276 205 -510 350
-751 465 -547 260 -1070 380 -1710 391 -113 2 -232 2 -265 0z"/>
<path d="M6813 12780 c-79 -65 -174 -189 -297 -390 -33 -52 -64 -98 -70 -102
-6 -4 -32 -8 -58 -8 -73 0 -77 6 -182 255 -59 138 -116 252 -132 266 -33 27
-104 -45 -164 -168 -41 -85 -43 -91 -115 -329 -73 -242 -98 -298 -169 -372
-93 -97 -164 -228 -212 -392 -24 -83 -28 -111 -27 -225 1 -132 10 -187 63
-380 32 -115 32 -311 0 -410 -42 -133 -142 -296 -230 -379 -94 -88 -166 -109
-490 -146 -235 -26 -354 -46 -487 -81 -265 -70 -380 -121 -600 -267 -274 -181
-474 -387 -689 -709 -107 -160 -218 -398 -264 -568 -5 -16 -17 -61 -28 -100
-115 -399 -162 -1151 -107 -1705 17 -177 21 -441 6 -516 -14 -71 -35 -122
-104 -246 -74 -136 -102 -218 -123 -365 -19 -138 -11 -230 32 -378 100 -347
414 -689 870 -948 99 -56 172 -90 329 -152 345 -136 643 -207 1058 -250 203
-22 703 -16 837 8 281 52 485 139 587 250 60 65 122 175 133 239 18 96 -12
177 -75 204 -53 22 -73 18 -175 -36 -336 -177 -516 -220 -910 -220 -502 0
-1061 124 -1410 312 -367 198 -588 407 -670 635 -30 85 -24 123 32 180 57 58
70 60 126 25 94 -59 65 -57 827 -54 440 2 761 -1 865 -8 538 -36 637 -24 691
82 47 92 16 223 -71 302 -112 101 -262 134 -536 118 -170 -10 -235 -5 -250 19
-17 27 10 58 103 121 188 125 290 241 383 432 68 141 94 227 111 369 22 193
-6 393 -91 647 -58 174 -62 200 -24 200 18 0 44 -18 89 -63 54 -54 74 -86 147
-232 215 -435 450 -1073 523 -1425 61 -290 113 -451 168 -516 63 -74 184 -104
423 -104 208 0 282 14 342 65 123 106 53 324 -128 398 -19 8 -72 20 -118 26
-45 6 -91 15 -102 21 -50 27 -70 238 -115 1210 -8 156 9 415 35 539 25 119 88
308 140 419 68 145 195 342 319 497 157 195 228 317 353 608 34 80 59 123 77
135 35 25 119 59 210 87 403 124 634 259 1055 618 384 327 700 537 809 537 11
0 68 -16 127 -35 135 -43 258 -60 331 -44 48 10 63 20 126 85 40 40 79 74 87
76 7 2 41 -25 75 -59 35 -35 86 -74 119 -90 49 -24 69 -28 142 -28 78 0 95 5
203 48 65 26 134 47 154 47 49 0 184 -72 378 -201 156 -104 256 -183 480 -379
243 -213 445 -355 645 -455 124 -63 189 -86 359 -129 160 -41 222 -67 250
-103 11 -13 34 -58 51 -101 95 -228 188 -386 373 -634 80 -106 171 -236 203
-288 128 -211 211 -434 254 -685 17 -97 15 -482 -4 -745 -8 -118 -20 -303 -26
-410 -15 -257 -35 -422 -60 -470 -23 -45 -76 -70 -148 -70 -146 0 -289 -171
-267 -318 10 -69 68 -123 161 -151 130 -39 481 -25 572 23 87 46 152 168 201
376 18 74 43 182 57 240 14 58 48 177 76 265 222 704 441 1206 596 1367 56 58
92 65 92 18 0 -17 -20 -90 -45 -163 -24 -73 -51 -163 -59 -202 -8 -38 -20 -97
-26 -130 -18 -85 -16 -293 3 -396 32 -175 105 -345 205 -477 68 -89 130 -147
260 -247 57 -43 92 -77 92 -88 0 -12 -16 -25 -47 -39 -45 -20 -58 -21 -249
-14 -219 7 -258 3 -351 -41 -70 -33 -161 -122 -193 -188 -28 -58 -37 -143 -20
-185 19 -45 78 -86 150 -105 68 -18 125 -17 350 4 256 24 648 34 1060 25 724
-16 742 -15 811 43 16 14 41 26 54 26 31 0 113 -66 127 -102 26 -67 -24 -205
-114 -313 -237 -286 -660 -532 -1118 -652 -310 -80 -543 -110 -870 -110 -234
0 -277 2 -372 22 -170 35 -245 64 -400 155 -154 92 -228 113 -285 83 -83 -42
-104 -175 -47 -296 78 -164 274 -293 564 -369 173 -45 281 -55 565 -54 497 3
897 71 1310 223 434 160 758 360 1016 627 120 124 182 209 241 328 76 151 100
262 101 455 1 185 -24 281 -121 475 -95 190 -97 200 -97 420 0 105 7 258 15
340 19 189 20 759 2 930 -27 261 -53 459 -72 540 -5 22 -16 74 -25 115 -74
333 -191 621 -353 866 -159 240 -364 452 -597 615 -277 195 -647 320 -1085
369 -226 25 -382 59 -446 96 -48 28 -167 149 -213 217 -73 107 -115 228 -130
376 -10 97 -1 179 35 326 92 372 28 663 -211 950 -68 82 -82 114 -125 273 -80
303 -124 411 -202 504 -53 64 -73 74 -94 49 -9 -11 -54 -104 -99 -208 -45
-103 -91 -207 -103 -230 -38 -73 -95 -100 -154 -72 -13 6 -49 55 -82 109 -52
87 -132 199 -249 346 -31 41 -65 69 -73 62 -2 -2 1 -33 7 -68 5 -35 11 -152
12 -260 3 -252 4 -250 -170 -314 -196 -73 -284 -136 -372 -266 -53 -78 -85
-159 -121 -307 -45 -180 -77 -240 -177 -337 -46 -44 -83 -87 -83 -95 1 -9 9
-41 20 -71 11 -30 19 -80 20 -111 0 -47 5 -63 33 -100 18 -24 40 -61 50 -82 9
-21 38 -60 63 -87 94 -101 224 -160 349 -160 62 0 78 -4 100 -22 85 -75 -10
-253 -161 -303 -116 -38 -396 -31 -605 15 -211 47 -358 114 -704 323 -355 214
-598 297 -869 297 -222 0 -376 -40 -474 -123 -24 -21 -50 -37 -57 -37 -8 0
-69 29 -137 64 -151 77 -213 91 -398 89 -355 -3 -486 -43 -885 -272 -331 -190
-586 -300 -780 -336 -257 -47 -547 -45 -644 5 -76 39 -131 119 -138 200 -8 80
5 87 163 92 112 4 126 6 187 36 111 55 155 103 226 249 48 97 61 134 58 158
-3 18 5 60 20 103 14 41 22 83 19 96 -3 12 -42 54 -86 95 -46 42 -87 88 -96
109 -22 52 -61 176 -80 252 -9 36 -35 106 -60 155 -95 195 -216 296 -471 394
-45 18 -84 39 -87 47 -12 30 -6 161 15 357 14 127 18 205 13 218 -9 19 -12 18
-61 -21z"/>
<path d="M13015 7933 c-27 -32 -372 -382 -766 -778 -669 -674 -873 -887 -1095
-1145 -421 -489 -798 -1034 -1079 -1558 -33 -62 -65 -112 -71 -112 -20 0 -41
33 -117 180 -164 318 -370 648 -559 894 -383 501 -635 789 -1090 1246 -389
392 -1288 1275 -1302 1278 -22 5 -101 -174 -164 -368 -107 -329 -106 -328 -14
-418 37 -37 153 -141 257 -232 105 -91 235 -207 289 -258 55 -52 208 -192 340
-311 355 -321 860 -829 1126 -1135 237 -272 424 -501 589 -721 217 -287 336
-472 471 -730 150 -288 154 -295 176 -295 8 0 40 56 74 126 198 417 592 971
1115 1569 165 189 880 908 1145 1152 102 94 259 239 350 323 90 83 234 213
320 288 85 75 197 174 248 220 l92 84 0 54 c0 74 -30 203 -85 364 -74 217
-140 340 -182 340 -10 0 -40 -26 -68 -57z"/>
</g>
</svg>
