<?xml version="1.0" standalone="no"?>
<!DOCTYPE svg PUBLIC "-//W3C//DTD SVG 20010904//EN"
 "http://www.w3.org/TR/2001/REC-SVG-20010904/DTD/svg10.dtd">
<svg version="1.0" xmlns="http://www.w3.org/2000/svg"
 width="1024.000000pt" height="1024.000000pt" viewBox="0 0 1024.000000 1024.000000"
 preserveAspectRatio="xMidYMid meet">

<g transform="translate(0.000000,1024.000000) scale(0.100000,-0.100000)"
fill="#000000" stroke="none">
<path d="M3051 8643 c-48 -24 -109 -112 -194 -281 -119 -236 -182 -408 -213
-585 -11 -66 -27 -114 -63 -186 -163 -325 -204 -569 -151 -886 55 -327 30
-515 -105 -802 -75 -158 -140 -253 -317 -464 -203 -242 -282 -348 -374 -502
-176 -294 -307 -662 -363 -1017 -47 -292 -50 -560 -11 -895 10 -88 17 -161 15
-163 -1 -2 -18 16 -38 40 -151 187 -274 455 -326 714 -82 408 -26 874 146
1219 71 141 128 221 254 350 141 146 173 200 173 295 0 95 -36 151 -118 185
-46 19 -146 21 -209 4 -376 -100 -693 -750 -737 -1513 -26 -464 56 -911 235
-1280 229 -470 612 -795 1077 -915 190 -49 254 -52 993 -49 l680 3 45 25 c124
69 116 215 -17 349 -84 83 -136 105 -254 109 l-97 4 49 65 c143 188 205 377
215 648 13 336 -62 551 -263 755 -51 52 -93 96 -93 97 0 10 47 0 85 -18 147
-69 274 -268 332 -523 22 -93 26 -137 27 -271 1 -96 -4 -190 -13 -235 -17 -92
-64 -254 -97 -333 -14 -32 -24 -60 -22 -61 2 -2 33 -17 70 -34 114 -52 215
-166 296 -334 71 -146 216 -222 447 -235 184 -10 331 32 361 102 21 51 17 144
-8 222 -17 52 -34 80 -73 120 -43 44 -60 54 -125 73 -106 30 -139 49 -174 98
-71 101 -91 190 -156 717 -50 403 -75 601 -85 659 -5 27 4 21 87 -60 51 -50
172 -149 268 -222 278 -207 352 -284 410 -422 68 -164 201 -260 359 -260 40 0
70 -8 117 -31 58 -29 70 -31 133 -27 120 9 259 90 276 161 3 12 8 38 13 58 6
30 29 54 147 154 290 246 494 439 609 575 l38 45 -6 -242 c-9 -365 -42 -736
-82 -930 -39 -192 -84 -249 -219 -282 -70 -17 -131 -55 -166 -103 -38 -53 -69
-155 -69 -227 0 -107 51 -149 212 -177 211 -37 435 15 541 124 57 60 215 382
274 559 51 152 51 153 35 195 -24 66 -23 394 1 506 58 262 176 462 350 596 93
71 278 157 277 129 -1 -5 -31 -27 -68 -50 -236 -147 -403 -376 -454 -621 -17
-82 -19 -122 -15 -257 6 -194 25 -275 98 -425 44 -90 64 -118 138 -192 l86
-86 -130 -4 c-122 -3 -133 -5 -183 -33 -65 -35 -161 -135 -192 -199 -43 -91
-11 -197 73 -244 30 -16 83 -17 712 -17 751 1 770 2 936 66 86 33 227 123 311
198 l56 51 21 -34 c41 -66 18 -130 -88 -240 -133 -138 -317 -245 -561 -325
-121 -39 -179 -112 -180 -224 0 -131 70 -194 230 -204 266 -17 624 137 873
377 207 198 307 396 307 609 0 186 -67 331 -235 511 -102 109 -98 97 -78 241
27 190 24 576 -6 768 -58 375 -195 757 -385 1070 -119 196 -223 319 -453 536
-388 367 -519 532 -591 740 -57 168 -73 402 -37 555 9 41 19 127 22 190 9 199
-32 379 -134 589 -53 109 -57 122 -74 254 -21 157 -60 330 -115 498 -62 194
-121 289 -192 309 -57 15 -122 -22 -224 -129 -75 -79 -225 -287 -288 -398 -13
-25 -31 -43 -41 -43 -10 0 -44 39 -85 97 -118 166 -233 275 -349 329 -65 31
-106 31 -142 0 -26 -22 -28 -30 -28 -98 0 -40 6 -140 13 -222 15 -165 11 -199
-21 -213 -44 -20 -194 -138 -255 -201 -74 -74 -134 -164 -156 -230 -9 -26 -22
-94 -31 -151 -22 -151 -41 -186 -150 -287 -96 -87 -125 -130 -125 -182 0 -18
30 -89 73 -174 62 -123 82 -153 147 -219 115 -116 268 -189 400 -189 148 0
273 -79 300 -189 27 -113 -6 -286 -100 -521 -100 -250 -135 -394 -149 -614 -8
-116 -11 -129 -45 -197 -47 -93 -135 -218 -272 -389 -120 -150 -451 -537 -478
-560 -17 -13 -37 5 -255 225 -341 345 -535 595 -586 758 -15 48 -31 136 -40
225 -29 273 -70 439 -177 706 -72 181 -98 285 -98 391 0 94 20 146 71 189 46
39 71 47 176 57 171 15 357 93 453 189 46 46 66 79 123 202 37 81 67 160 67
175 0 36 -16 60 -108 156 -91 97 -125 167 -146 298 -30 189 -93 324 -207 444
-39 40 -94 90 -124 111 -70 47 -70 46 -6 302 61 245 65 270 51 321 -21 79 -94
90 -211 31 -124 -63 -225 -137 -361 -266 -84 -80 -168 -134 -209 -134 -24 0
-30 8 -60 83 -123 310 -291 538 -396 537 -10 0 -33 -8 -52 -17z"/>
</g>
</svg>
